<svg width="85" height="24" viewBox="0 0 85 24" fill="none" xmlns="http://www.w3.org/2000/svg">
<rect x="0.5" y="0.5" width="84" height="23" rx="11.5" fill="#FAFAFA" stroke="#FF9900"/>
<path d="M23.2521 17V8.636H27.9801V9.524H24.3441V12.344H27.2961V13.232H24.3441V17H23.2521ZM32.095 11.24C31.027 11.24 30.139 11.948 30.019 13.232H34.171C34.183 11.948 33.223 11.24 32.095 11.24ZM35.167 14.972C34.831 16.172 33.775 17.108 32.143 17.108C30.271 17.108 28.891 15.788 28.891 13.7C28.891 11.624 30.223 10.316 32.143 10.316C34.051 10.316 35.299 11.66 35.299 13.46C35.299 13.7 35.287 13.892 35.263 14.12H30.007C30.091 15.452 31.027 16.184 32.143 16.184C33.127 16.184 33.751 15.68 33.991 14.972H35.167ZM36.3324 13.688C36.3324 11.636 37.6884 10.316 39.4524 10.316C40.6764 10.316 41.5164 10.94 41.9004 11.624V10.424H43.0044V17H41.9004V15.776C41.5044 16.484 40.6524 17.108 39.4404 17.108C37.6884 17.108 36.3324 15.728 36.3324 13.688ZM41.9004 13.7C41.9004 12.176 40.8684 11.264 39.6684 11.264C38.4684 11.264 37.4484 12.14 37.4484 13.688C37.4484 15.236 38.4684 16.148 39.6684 16.148C40.8684 16.148 41.9004 15.248 41.9004 13.7ZM45.0898 15.2V11.324H44.2378V10.424H45.0898V8.768H46.1818V10.424H47.8978V11.324H46.1818V15.2C46.1818 15.848 46.4218 16.076 47.0938 16.076H47.8978V17H46.9138C45.7498 17 45.0898 16.52 45.0898 15.2ZM55.0529 10.424V17H53.9609V16.028C53.5409 16.712 52.7369 17.096 51.8609 17.096C50.3489 17.096 49.1609 16.16 49.1609 14.276V10.424H50.2409V14.132C50.2409 15.464 50.9729 16.148 52.0769 16.148C53.2049 16.148 53.9609 15.452 53.9609 14.036V10.424H55.0529ZM57.9887 13.424V17H56.8967V10.424H57.9887V11.492C58.3607 10.76 59.0687 10.304 60.1127 10.304V11.432H59.8247C58.7807 11.432 57.9887 11.9 57.9887 13.424ZM64.1692 11.24C63.1012 11.24 62.2132 11.948 62.0932 13.232H66.2452C66.2572 11.948 65.2972 11.24 64.1692 11.24ZM67.2412 14.972C66.9052 16.172 65.8492 17.108 64.2172 17.108C62.3452 17.108 60.9652 15.788 60.9652 13.7C60.9652 11.624 62.2972 10.316 64.2172 10.316C66.1252 10.316 67.3732 11.66 67.3732 13.46C67.3732 13.7 67.3612 13.892 67.3372 14.12H62.0812C62.1652 15.452 63.1012 16.184 64.2172 16.184C65.2012 16.184 65.8252 15.68 66.0652 14.972H67.2412ZM68.4066 13.688C68.4066 11.636 69.7626 10.316 71.5386 10.316C72.5706 10.316 73.5186 10.844 73.9746 11.6V8.12H75.0786V17H73.9746V15.764C73.5786 16.496 72.7266 17.108 71.5266 17.108C69.7626 17.108 68.4066 15.728 68.4066 13.688ZM73.9746 13.7C73.9746 12.176 72.9426 11.264 71.7426 11.264C70.5426 11.264 69.5226 12.14 69.5226 13.688C69.5226 15.236 70.5426 16.148 71.7426 16.148C72.9426 16.148 73.9746 15.248 73.9746 13.7Z" fill="#FF9900"/>
<path d="M12.0081 6.73497C12.335 5.75501 13.665 5.75501 13.9919 6.73497L14.7353 8.96336C14.8795 9.39566 15.2667 9.68878 15.7058 9.6981L17.9694 9.74617C18.9648 9.76731 19.3758 11.0854 18.5824 11.7122L16.7783 13.1374C16.4282 13.4139 16.2804 13.8882 16.4075 14.3263L17.0632 16.5844C17.3515 17.5774 16.2755 18.392 15.4582 17.7994L13.5998 16.4519C13.2393 16.1905 12.7607 16.1905 12.4002 16.4519L10.5418 17.7994C9.72452 18.392 8.64851 17.5774 8.93683 16.5844L9.59245 14.3263C9.71964 13.8882 9.57175 13.4139 9.22174 13.1374L7.41756 11.7122C6.62416 11.0854 7.03516 9.76731 8.0306 9.74617L10.2942 9.6981C10.7333 9.68878 11.1205 9.39566 11.2647 8.96336L12.0081 6.73497Z" fill="#FF9900"/>
</svg>
