<svg width="62" height="32" viewBox="0 0 62 32" fill="none" xmlns="http://www.w3.org/2000/svg">
<g clip-path="url(#clip0_0_105)">
<path d="M39.2901 28.0269C38.9178 29.5881 37.7532 30.2458 35.8036 30.2458C34.4804 30.2458 33.3165 29.9771 32.7178 29.37C32.0685 28.7261 31.9707 27.8377 31.9707 26.8884V22.233H33.4522V26.8088C33.4522 27.8425 33.5362 28.459 33.9357 28.9131C34.3892 29.4455 35.1726 29.6012 35.8334 29.6012C37.2309 29.6012 38.1619 29.1435 38.4146 27.9C38.473 27.6135 38.5184 27.2626 38.5184 26.7207V22.2329H39.4303V26.4071C39.4304 27.1866 39.3858 27.6268 39.2901 28.0269Z" fill="black"/>
<path d="M39.2901 28.0269C38.9178 29.5881 37.7532 30.2458 35.8036 30.2458C34.4804 30.2458 33.3165 29.9771 32.7178 29.37C32.0685 28.7261 31.9707 27.8377 31.9707 26.8884V22.233H33.4522V26.8088C33.4522 27.8425 33.5362 28.459 33.9357 28.9131C34.3892 29.4455 35.1726 29.6012 35.8334 29.6012C37.2309 29.6012 38.1619 29.1435 38.4146 27.9C38.473 27.6135 38.5184 27.2626 38.5184 26.7207V22.2329H39.4303V26.4071C39.4304 27.1866 39.3858 27.6268 39.2901 28.0269Z" stroke="black" stroke-width="0.575339"/>
<path d="M46.7976 23.7194L45.0817 27.3375H48.4288L46.7976 23.7194ZM49.6505 30.0722L48.6736 27.8705H44.8284L43.782 30.0722H42.8418L46.7088 22.2329H47.6303L51.4141 30.0722H49.6505Z" fill="black"/>
<path d="M46.7976 23.7194L45.0817 27.3375H48.4288L46.7976 23.7194ZM49.6505 30.0722L48.6736 27.8705H44.8284L43.782 30.0722H42.8418L46.7088 22.2329H47.6303L51.4141 30.0722H49.6505Z" stroke="black" stroke-width="0.575339"/>
<path d="M11.5055 23.7194L9.791 27.3375H13.1389L11.5055 23.7194ZM14.3597 30.0722L13.3843 27.8705H9.53833L8.49057 30.0722H7.55078L11.4179 22.2329H12.3386L16.124 30.0722H14.3597Z" fill="black"/>
<path d="M11.5055 23.7194L9.791 27.3375H13.1389L11.5055 23.7194ZM14.3597 30.0722L13.3843 27.8705H9.53833L8.49057 30.0722H7.55078L11.4179 22.2329H12.3386L16.124 30.0722H14.3597Z" stroke="black" stroke-width="0.575339"/>
<path d="M24.1943 30.2453C21.6342 30.2453 19.2012 29.3547 19.2012 26.3443C19.2012 25.3659 19.6305 24.3632 20.279 23.6454C21.2955 22.5297 22.8389 22.0847 24.2965 22.0847C25.1778 22.0847 26.1987 22.2869 26.993 22.6952V23.6263C26.2731 23.0834 25.3253 22.709 24.401 22.709C22.2951 22.709 20.8427 24.0412 20.8427 26.2453C20.8427 28.2403 22.1243 29.6057 24.0958 29.6057C24.5975 29.6057 25.2919 29.5155 25.7694 29.3304V26.4683H27.2509V29.6641C26.3818 30.0598 25.1485 30.2453 24.1943 30.2453Z" fill="black"/>
<path d="M24.1943 30.2453C21.6342 30.2453 19.2012 29.3547 19.2012 26.3443C19.2012 25.3659 19.6305 24.3632 20.279 23.6454C21.2955 22.5297 22.8389 22.0847 24.2965 22.0847C25.1778 22.0847 26.1987 22.2869 26.993 22.6952V23.6263C26.2731 23.0834 25.3253 22.709 24.401 22.709C22.2951 22.709 20.8427 24.0412 20.8427 26.2453C20.8427 28.2403 22.1243 29.6057 24.0958 29.6057C24.5975 29.6057 25.2919 29.5155 25.7694 29.3304V26.4684H27.2509V29.6641C26.3818 30.0598 25.1485 30.2453 24.1943 30.2453Z" stroke="black" stroke-width="0.575339"/>
<path d="M57.7573 22.7771H56.6678V26.5273H57.6207C58.4195 26.5273 58.8973 26.3766 59.2696 26.0732C59.6625 25.7541 59.8976 25.2647 59.8976 24.6032C59.8974 23.2784 58.9453 22.7771 57.7573 22.7771ZM60.2751 30.0721L58.2209 27.0618H56.6678V30.0721H55.1855V22.2329H57.9894C59.127 22.2329 60.2655 22.3997 60.8993 23.1079C61.2308 23.4779 61.4111 23.9926 61.4111 24.6548C61.4111 25.8664 60.5078 26.6003 59.7032 26.8891L61.9814 30.0721L60.2751 30.0721Z" fill="black"/>
<path d="M57.7573 22.7771H56.6678V26.5273H57.6207C58.4195 26.5273 58.8973 26.3766 59.2696 26.0732C59.6625 25.7541 59.8976 25.2647 59.8976 24.6032C59.8974 23.2784 58.9453 22.7771 57.7573 22.7771ZM60.2751 30.0721L58.2209 27.0618H56.6678V30.0721H55.1855V22.2329H57.9894C59.127 22.2329 60.2655 22.3997 60.8993 23.1079C61.2308 23.4779 61.4111 23.9926 61.4111 24.6548C61.4111 25.8664 60.5078 26.6003 59.7032 26.8891L61.9814 30.0721L60.2751 30.0721Z" stroke="black" stroke-width="0.575339"/>
<path d="M1.28836 31.6837C0.8971 31.8697 0.468431 31.993 0.0273438 31.993C1.04302 31.2503 1.47239 30.4949 1.61916 29.244C1.70531 28.55 1.70531 27.8559 1.70531 27.1625V22.2332H3.1876V28.166C3.18776 29.6147 2.63638 31.0154 1.28836 31.6837Z" fill="black"/>
<path d="M1.28836 31.6837C0.8971 31.8697 0.468431 31.993 0.0273438 31.993C1.04302 31.2503 1.47239 30.4949 1.61916 29.244C1.70531 28.55 1.70531 27.8559 1.70531 27.1625V22.2332H3.1876V28.166C3.18776 29.6147 2.63638 31.0154 1.28836 31.6837Z" stroke="black" stroke-width="0.575339"/>
<path d="M10.6072 1.30586C11.1394 1.32208 11.5965 1.12125 11.5981 1.09247C11.5996 1.06369 11.0088 1.00684 11.0088 1.00684C10.4677 1.02969 10.2471 1.2327 10.2442 1.25641C10.2406 1.27919 10.3852 1.29837 10.6072 1.30586Z" fill="black"/>
<path d="M6.98865 2.23241C6.98865 2.23241 7.02081 2.11792 7.03469 2.09289C7.04857 2.06699 7.12601 1.80268 7.49976 1.7739C7.49976 1.7739 7.68811 1.75689 7.90506 1.82483C7.90506 1.82483 7.7802 2.15044 7.26916 2.20434C7.26908 2.20434 7.06816 2.23468 6.98865 2.23241ZM57.0306 16.9123C56.9037 17.2295 56.3596 17.6337 55.7207 17.8498C55.0461 18.0779 53.6373 18.0838 52.9168 17.8417C52.9168 17.8417 52.765 17.6747 52.2581 17.5242C51.0796 17.1736 50.6985 16.9292 50.1004 16.3658C49.6777 15.9679 49.2124 15.4687 48.7613 14.9983C48.5605 14.7886 48.072 14.2938 47.2133 14.1432C46.3175 13.9867 44.1188 13.8168 43.3091 13.5274C42.7643 13.3318 42.1187 12.9604 41.3084 11.7347C40.9199 11.1462 40.6256 10.9749 40.0648 10.6131C40.0648 10.6131 40.4928 10.9549 40.7178 11.3699C41.0426 11.9725 41.1982 12.406 41.3756 12.7263C41.5543 13.049 41.7612 13.3363 42.0839 13.5984C42.484 13.9233 42.7425 13.9949 43.1945 14.0872C43.6267 14.1758 45.1024 14.2416 46.3686 14.2917C47.6135 14.3405 48.1459 14.7304 48.535 15.0605C48.8928 15.3661 49.4631 16.239 49.8633 16.5963C50.3984 17.0718 50.4124 17.0785 51.0338 17.4727C51.3477 17.672 51.6245 17.8026 51.8794 17.8951C52.4497 18.2339 52.2138 18.8254 52.2138 18.8254C52.0503 19.2967 51.4618 19.4655 50.7747 19.3672C49.7363 19.2744 48.8425 18.3986 48.0875 17.7702C47.6721 17.4238 47.5252 17.251 46.7242 16.6883C45.5055 15.8334 42.6418 15.9042 42.6418 15.9042L40.5432 15.8909C36.4555 15.9515 34.96 12.6258 34.5519 11.9279C34.411 11.6851 34.2803 11.4894 34.1561 11.3291C33.9655 11.0692 32.9397 9.71507 31.8407 9.23144C31.8407 9.23144 32.8958 10.1544 32.79 10.6595C32.5636 10.6565 32.3065 10.6713 31.9998 10.6801C27.8816 10.802 27.0258 10.5716 26.3753 10.4402C25.7238 10.308 24.6323 9.98017 23.5714 9.48616C23.5714 9.48616 23.6897 8.45986 23.2684 7.60702C23.2684 7.60702 26.6675 8.82089 29.3719 8.47687C29.3719 8.47687 25.007 8.26122 22.2842 6.0669C22.2842 6.0669 22.956 8.38616 22.4251 9.36005C22.4251 9.36005 21.7096 11.1284 18.0403 9.9485C18.0403 9.9485 16.3527 9.28471 15.0406 9.28471C15.0406 9.28471 14.0527 9.32605 13.9345 9.84664C13.9345 9.84664 13.8701 10.0954 14.1279 10.2136C14.1279 10.2136 14.4142 10.2963 14.279 10.5111C14.0564 10.8663 13.7473 11.141 13.4407 11.296C12.417 11.245 12.4929 10.3952 12.4929 10.3952C12.5112 10.0939 12.6076 9.88346 12.6989 9.676C13.3421 8.22066 15.6028 8.00946 15.6028 8.00946C18.008 7.76659 20.5294 8.3506 20.5294 8.3506C18.7258 7.91563 18.1125 7.59664 17.5969 7.16176C16.9024 6.57549 16.2534 4.60556 16.2534 4.60556C15.9767 5.57134 16.3192 6.54749 16.5506 7.04883C16.2088 6.49727 15.7218 6.03142 15.2874 5.67913C14.1768 4.77894 12.5644 4.48811 12.5644 4.48811C12.0985 4.40754 11.9138 3.91954 11.9138 3.91954C11.3164 2.80753 10.6404 2.75512 10.6404 2.75512C10.9732 3.2166 10.9382 3.84795 10.9382 3.84795C10.9382 5.01167 9.45824 5.39789 9.45824 5.39789C8.35116 6.5106 8.1592 6.48689 7.94301 6.50319C7.72682 6.51871 7.56702 6.29199 7.56702 6.29199C7.49683 6.18561 7.61368 6.09038 7.61368 6.09038C7.80056 5.97222 7.97733 5.81795 7.97733 5.81795C9.05656 4.94148 9.20843 4.49333 9.12081 3.88187C8.94481 2.66051 7.97078 2.75067 7.97078 2.75067C7.51288 2.75067 7.28659 3.10359 7.28659 3.10359C7.10989 3.31627 6.72356 3.98147 6.72356 3.98147C6.38328 4.55011 6.07886 4.46658 6.07886 4.46658C5.70356 4.49099 5.43192 4.15422 5.43192 4.15422C5.41727 4.14104 5.40632 4.12544 5.39398 4.11218C5.11586 3.81012 5.35526 3.44543 5.35526 3.44543C5.81324 2.62729 6.60317 2.54688 6.71053 2.54017C6.8185 2.53354 7.18293 2.50617 7.18293 2.50617C8.07505 2.4405 8.65782 1.57806 8.65782 1.57806C8.28183 1.39423 7.61013 1.49172 7.61013 1.49172C6.95587 1.53602 6.78349 2.23819 6.7821 2.23819C6.21545 2.32242 6.24391 1.88231 6.36515 1.76641C6.46079 1.6527 6.79807 1.10036 8.96748 0.771073C8.96748 0.771073 10.1183 0.540684 12.1621 0.767407C12.2373 0.775518 12.3102 0.842046 12.2139 0.957162C11.9568 1.26219 11.1529 1.93846 9.86338 1.61136C9.86338 1.61136 9.84009 2.13266 11.2464 2.39331C11.2464 2.39331 12.5148 2.66644 14.5855 4.3485C14.5855 4.3485 13.5816 2.47084 11.8459 1.89853C11.8459 1.89853 11.7174 1.81586 11.8342 1.697C11.8342 1.697 12.6556 0.952639 14.105 1.03094C14.105 1.03094 18.898 1.27982 21.5924 4.12326C21.5924 4.12326 21.499 3.64922 21.0886 2.9618C21.0886 2.9618 21.0061 2.87983 21.0535 2.82009C21.0535 2.82009 21.0886 2.70115 21.5574 2.79638C21.5574 2.79638 23.2682 3.08074 27.2396 4.55003C27.2396 4.55003 30.2166 5.60519 31.8399 6.28598C34.2802 7.30862 40.3939 9.81623 44.2553 11.9775C44.9446 12.3629 47.8164 13.7976 47.8164 13.7976C49.9632 15.145 51.9384 16.1205 51.9384 16.1205C53.8836 17.0295 55.298 16.613 55.298 16.613C55.7498 16.4409 56.6131 15.967 56.9496 16.3035C57.1211 16.4758 57.1313 16.7001 57.0306 16.9123ZM57.5146 16.1494C57.2604 15.5507 56.4419 15.6975 56.4419 15.6975C56.0675 15.7205 55.5951 16.1168 54.9385 16.2534C53.5264 16.5481 52.4464 16.0623 52.4464 16.0623C50.3656 15.1202 48.9569 14.0938 48.0405 13.5636C47.1242 13.0335 43.7325 11.2318 40.34 9.50769C40.34 9.50769 36.4539 7.49338 30.7044 5.0899C30.7044 5.0899 19.6113 0.000197068 11.6327 0.000197068C11.6327 0.000197068 7.49984 -0.0522917 6.10015 1.55599C6.10015 1.55599 5.85334 1.76274 5.97374 2.01747C5.97374 2.01747 5.99055 2.08766 5.93872 2.13266C5.93872 2.13266 5.32317 2.54173 4.82216 3.1287C4.82216 3.1287 4.55361 3.40635 4.76956 3.82057C4.76956 3.82057 5.0368 4.29164 5.20556 4.49403C5.3757 4.69557 5.7159 5.04856 6.23574 4.99615C6.46573 4.97252 6.47228 4.91426 6.47228 4.91426C6.71107 5.1579 7.12801 5.17264 7.12801 5.17264C7.08636 5.02282 6.92718 4.7259 6.91329 4.55315C6.89795 4.35973 6.97237 4.18027 6.97237 4.18027C7.05929 3.96759 7.22219 3.70397 7.38801 3.57256C7.53547 3.45588 7.90121 3.33483 8.17431 3.52826C8.39351 3.68338 8.62627 4.18027 8.3635 4.83447C8.3635 4.83447 8.0678 5.35133 7.7947 5.40888L7.71888 5.41255C7.56254 5.40959 7.21432 5.21546 7.21432 5.21546C7.21432 5.21546 7.19974 5.25758 7.23838 5.43556C7.26098 5.53663 7.29314 5.64894 7.32021 5.73528L7.24787 5.79432C7.24787 5.79432 7.02806 5.97308 7.12524 6.23077C7.12524 6.23077 7.33919 7.04446 7.93645 7.04446C8.46446 7.06224 8.90393 6.55568 8.90393 6.55568C10.0365 5.32036 11.6327 5.15424 11.6327 5.15424C13.4018 5.03234 15.9299 6.8643 16.6184 7.39301C13.9985 7.36423 12.9412 8.38094 12.9412 8.38094C11.4655 9.54247 12.0401 10.9439 12.0401 10.9439C12.1475 11.2488 12.4497 11.4711 12.6426 11.5567C12.9206 11.6792 13.1493 11.6844 13.3647 11.66C13.5203 11.643 13.6909 11.5847 13.7779 11.5242C13.9787 11.4045 14.3372 11.1675 14.5103 10.9157C14.6257 10.7894 14.7417 10.4801 14.6651 10.1854C14.6651 10.1854 14.6185 9.94842 14.8294 9.90038C14.8294 9.90038 15.5237 9.72248 16.9258 10.3487C16.9258 10.3487 18.449 11.2465 20.4248 11.4245C20.4248 11.4245 22.6716 11.6549 23.2142 10.4247C23.2142 10.4247 24.5051 10.9586 26.3942 11.1772C26.3942 11.1772 28.2349 11.3698 31.2207 11.1425C31.8084 11.0974 32.4984 11.1469 32.4984 11.1469C33.4542 11.2628 34.0618 11.7657 34.3012 12.1593C35.2798 13.7659 36.4473 16.9181 41.2279 16.7934L43.3915 16.7334C44.7066 16.7334 45.7776 16.7445 46.8291 17.313C47.2884 17.5619 48.5014 18.7793 49.2482 19.1906C51.46 20.6978 52.7377 19.9971 52.7377 19.9971C53.4906 19.5534 53.4314 18.7639 53.2481 18.3218C53.0217 18.2492 55.9885 18.7617 57.2533 17.0821C57.5526 16.7076 57.605 16.3644 57.5146 16.1494Z" fill="black"/>
</g>
<defs>
<clipPath id="clip0_0_105">
<rect width="62" height="32" fill="white"/>
</clipPath>
</defs>
</svg>
