<svg width="62" height="25" viewBox="0 0 62 25" fill="none" xmlns="http://www.w3.org/2000/svg">
<path d="M51.7283 13.3481C51.6778 16.1365 52.2791 17.6133 54.5742 17.6133C56.8654 17.6133 57.1942 15.0975 57.1942 13.183C57.1942 11.2674 56.7594 9.40765 54.3522 9.40765C52.8754 9.40765 51.785 10.5569 51.7283 13.3481ZM47.0852 25V6.12578H51.785V6.89136C51.785 7.9126 52.1963 7.49149 52.5277 7.0935C52.5831 7.02699 53.6306 5.74296 55.9895 5.74296C58.3413 5.74296 62 7.38371 62 13.1831C62 17.6689 59.8173 20.9508 56.0476 20.9508C53.9703 20.9508 52.7694 20.1317 52.4948 19.8012C52.2198 19.4751 51.838 19.4183 51.838 19.8012V24.9999L47.0852 25ZM10.7599 0H15.8403V13.3481C15.8403 15.6442 14.8559 20.4598 7.81057 20.4598C0.764418 20.4598 0 15.9714 0 13.4568V10.9953H4.91637V13.4012C4.91637 14.8781 5.89987 16.2451 7.75596 16.2451C9.61285 16.2451 10.7599 15.2062 10.7599 13.4568V0ZM26.4648 11.3234C26.4648 9.95425 25.7016 8.64157 23.9537 8.64157C22.2604 8.64157 21.659 9.84393 21.659 11.3234H26.4648ZM23.4637 5.57874C27.4534 5.57874 30.9477 7.10997 30.9477 14.1672H21.4988C21.4988 16.4102 22.4264 17.3404 24.0651 17.3404C25.7041 17.3404 26.25 16.0265 26.25 16.0265H30.8942C30.8942 18.0513 28.1081 20.7866 23.9011 20.7323C19.0957 20.7323 16.7465 17.1762 16.7465 13.5107C16.7465 9.84392 18.8207 5.57874 23.4637 5.57874ZM41.5701 11.3234C41.5701 9.95425 40.8061 8.64157 39.0581 8.64157C37.3656 8.64157 36.763 9.84393 36.763 11.3234H41.5701ZM38.569 5.57874C42.5583 5.57874 46.0517 7.10997 46.0517 14.1672H36.6032C36.6032 16.4102 37.5317 17.3404 39.1716 17.3404C40.809 17.3404 41.3556 16.0265 41.3556 16.0265H45.9999C45.9999 18.0513 43.2133 20.7866 39.0076 20.7323C34.1997 20.7323 31.8504 17.1762 31.8504 13.5107C31.8504 9.84392 33.9272 5.57874 38.569 5.57874Z" fill="black"/>
</svg>
