<svg width="87" height="26" viewBox="0 0 87 26" fill="none" xmlns="http://www.w3.org/2000/svg">
<rect x="0.5" y="1.5" width="86" height="23" rx="11.5" fill="#DCDCDC"/>
<rect x="0.5" y="1.5" width="86" height="23" rx="11.5" stroke="#363636"/>
<rect x="0.5" y="1.5" width="86" height="23" rx="11.5" stroke="url(#paint0_linear_0_6550)"/>
<path d="M27.7933 12.608H29.4013C30.6493 12.608 31.1773 12.02 31.1773 11.084C31.1773 10.112 30.6493 9.536 29.4013 9.536H27.7933V12.608ZM32.2933 11.084C32.2933 12.356 31.4773 13.508 29.4013 13.508H27.7933V17H26.7013V8.636H29.4013C31.3693 8.636 32.2933 9.716 32.2933 11.084ZM34.7426 13.424V17H33.6506V10.424H34.7426V11.492C35.1146 10.76 35.8226 10.304 36.8666 10.304V11.432H36.5786C35.5346 11.432 34.7426 11.9 34.7426 13.424ZM40.9231 11.24C39.8551 11.24 38.9671 11.948 38.8471 13.232H42.9991C43.0111 11.948 42.0511 11.24 40.9231 11.24ZM43.9951 14.972C43.6591 16.172 42.6031 17.108 40.9711 17.108C39.0991 17.108 37.7191 15.788 37.7191 13.7C37.7191 11.624 39.0511 10.316 40.9711 10.316C42.8791 10.316 44.1271 11.66 44.1271 13.46C44.1271 13.7 44.1151 13.892 44.0911 14.12H38.8351C38.9191 15.452 39.8551 16.184 40.9711 16.184C41.9551 16.184 42.5791 15.68 42.8191 14.972H43.9951ZM55.0605 17V13.28C55.0605 11.936 54.3405 11.252 53.2605 11.252C52.1565 11.252 51.4005 11.96 51.4005 13.376V17H50.3205V13.28C50.3205 11.936 49.6005 11.252 48.5205 11.252C47.4165 11.252 46.6605 11.96 46.6605 13.376V17H45.5685V10.424H46.6605V11.372C47.0925 10.676 47.8725 10.304 48.7365 10.304C49.8165 10.304 50.7165 10.784 51.1485 11.768C51.5325 10.82 52.4685 10.304 53.4765 10.304C54.9765 10.304 56.1405 11.24 56.1405 13.124V17H55.0605ZM57.9318 17V10.424H59.0238V17H57.9318ZM58.4958 9.356C58.0758 9.356 57.7518 9.032 57.7518 8.612C57.7518 8.192 58.0758 7.868 58.4958 7.868C58.8918 7.868 59.2158 8.192 59.2158 8.612C59.2158 9.032 58.8918 9.356 58.4958 9.356ZM66.7169 10.424V17H65.6249V16.028C65.2049 16.712 64.4009 17.096 63.5249 17.096C62.0129 17.096 60.8249 16.16 60.8249 14.276V10.424H61.9049V14.132C61.9049 15.464 62.6369 16.148 63.7409 16.148C64.8689 16.148 65.6249 15.452 65.6249 14.036V10.424H66.7169ZM78.0527 17V13.28C78.0527 11.936 77.3327 11.252 76.2527 11.252C75.1487 11.252 74.3927 11.96 74.3927 13.376V17H73.3127V13.28C73.3127 11.936 72.5927 11.252 71.5127 11.252C70.4087 11.252 69.6527 11.96 69.6527 13.376V17H68.5607V10.424H69.6527V11.372C70.0847 10.676 70.8647 10.304 71.7287 10.304C72.8087 10.304 73.7087 10.784 74.1407 11.768C74.5247 10.82 75.4607 10.304 76.4687 10.304C77.9687 10.304 79.1327 11.24 79.1327 13.124V17H78.0527Z" fill="#4D4D4D"/>
<path d="M27.7933 12.608H29.4013C30.6493 12.608 31.1773 12.02 31.1773 11.084C31.1773 10.112 30.6493 9.536 29.4013 9.536H27.7933V12.608ZM32.2933 11.084C32.2933 12.356 31.4773 13.508 29.4013 13.508H27.7933V17H26.7013V8.636H29.4013C31.3693 8.636 32.2933 9.716 32.2933 11.084ZM34.7426 13.424V17H33.6506V10.424H34.7426V11.492C35.1146 10.76 35.8226 10.304 36.8666 10.304V11.432H36.5786C35.5346 11.432 34.7426 11.9 34.7426 13.424ZM40.9231 11.24C39.8551 11.24 38.9671 11.948 38.8471 13.232H42.9991C43.0111 11.948 42.0511 11.24 40.9231 11.24ZM43.9951 14.972C43.6591 16.172 42.6031 17.108 40.9711 17.108C39.0991 17.108 37.7191 15.788 37.7191 13.7C37.7191 11.624 39.0511 10.316 40.9711 10.316C42.8791 10.316 44.1271 11.66 44.1271 13.46C44.1271 13.7 44.1151 13.892 44.0911 14.12H38.8351C38.9191 15.452 39.8551 16.184 40.9711 16.184C41.9551 16.184 42.5791 15.68 42.8191 14.972H43.9951ZM55.0605 17V13.28C55.0605 11.936 54.3405 11.252 53.2605 11.252C52.1565 11.252 51.4005 11.96 51.4005 13.376V17H50.3205V13.28C50.3205 11.936 49.6005 11.252 48.5205 11.252C47.4165 11.252 46.6605 11.96 46.6605 13.376V17H45.5685V10.424H46.6605V11.372C47.0925 10.676 47.8725 10.304 48.7365 10.304C49.8165 10.304 50.7165 10.784 51.1485 11.768C51.5325 10.82 52.4685 10.304 53.4765 10.304C54.9765 10.304 56.1405 11.24 56.1405 13.124V17H55.0605ZM57.9318 17V10.424H59.0238V17H57.9318ZM58.4958 9.356C58.0758 9.356 57.7518 9.032 57.7518 8.612C57.7518 8.192 58.0758 7.868 58.4958 7.868C58.8918 7.868 59.2158 8.192 59.2158 8.612C59.2158 9.032 58.8918 9.356 58.4958 9.356ZM66.7169 10.424V17H65.6249V16.028C65.2049 16.712 64.4009 17.096 63.5249 17.096C62.0129 17.096 60.8249 16.16 60.8249 14.276V10.424H61.9049V14.132C61.9049 15.464 62.6369 16.148 63.7409 16.148C64.8689 16.148 65.6249 15.452 65.6249 14.036V10.424H66.7169ZM78.0527 17V13.28C78.0527 11.936 77.3327 11.252 76.2527 11.252C75.1487 11.252 74.3927 11.96 74.3927 13.376V17H73.3127V13.28C73.3127 11.936 72.5927 11.252 71.5127 11.252C70.4087 11.252 69.6527 11.96 69.6527 13.376V17H68.5607V10.424H69.6527V11.372C70.0847 10.676 70.8647 10.304 71.7287 10.304C72.8087 10.304 73.7087 10.784 74.1407 11.768C74.5247 10.82 75.4607 10.304 76.4687 10.304C77.9687 10.304 79.1327 11.24 79.1327 13.124V17H78.0527Z" fill="url(#paint1_linear_0_6550)"/>
<g opacity="0.7" filter="url(#filter0_f_0_6550)">
<path d="M13 3L13.9112 11.108L20.8183 6.7651L15.0473 12.5327L22.7493 15.2252L14.6418 14.3093L17.3388 22.0097L13 15.1L8.66116 22.0097L11.3582 14.3093L3.25072 15.2252L10.9527 12.5327L5.18168 6.7651L12.0888 11.108L13 3Z" fill="black"/>
</g>
<path d="M6.5 10C6.5 8.61929 7.61929 7.5 9 7.5H12C13.3807 7.5 14.5 8.61929 14.5 10V11C14.5 12.3807 13.3807 13.5 12 13.5H7C6.72386 13.5 6.5 13.2761 6.5 13V10Z" fill="#D6D6D6"/>
<path d="M6.5 10C6.5 8.61929 7.61929 7.5 9 7.5H12C13.3807 7.5 14.5 8.61929 14.5 10V11C14.5 12.3807 13.3807 13.5 12 13.5H7C6.72386 13.5 6.5 13.2761 6.5 13V10Z" fill="url(#paint2_linear_0_6550)"/>
<path d="M6.5 10C6.5 8.61929 7.61929 7.5 9 7.5H12C13.3807 7.5 14.5 8.61929 14.5 10V11C14.5 12.3807 13.3807 13.5 12 13.5H7C6.72386 13.5 6.5 13.2761 6.5 13V10Z" fill="url(#paint3_linear_0_6550)"/>
<path d="M6.5 10C6.5 8.61929 7.61929 7.5 9 7.5H12C13.3807 7.5 14.5 8.61929 14.5 10V11C14.5 12.3807 13.3807 13.5 12 13.5H7C6.72386 13.5 6.5 13.2761 6.5 13V10Z" stroke="#595959"/>
<path d="M11.5 9C11.5 8.43721 11.314 7.91784 11.0001 7.5H12H14H17C18.3806 7.5 19.5 8.6194 19.5 10V19.0132C19.5 19.4539 18.9177 19.6867 18.6106 19.3172L16.6585 16.9676C16.6585 16.9676 16.6585 16.9676 16.6585 16.9676C16.0587 16.2455 14.9413 16.2455 14.3415 16.9676C14.3415 16.9676 14.3415 16.9676 14.3415 16.9676L12.3894 19.3172C12.0823 19.6867 11.5 19.4539 11.5 19.0132V14V9Z" fill="#C0C0C0"/>
<path d="M11.5 9C11.5 8.43721 11.314 7.91784 11.0001 7.5H12H14H17C18.3806 7.5 19.5 8.6194 19.5 10V19.0132C19.5 19.4539 18.9177 19.6867 18.6106 19.3172L16.6585 16.9676C16.6585 16.9676 16.6585 16.9676 16.6585 16.9676C16.0587 16.2455 14.9413 16.2455 14.3415 16.9676C14.3415 16.9676 14.3415 16.9676 14.3415 16.9676L12.3894 19.3172C12.0823 19.6867 11.5 19.4539 11.5 19.0132V14V9Z" fill="url(#paint4_linear_0_6550)"/>
<path d="M11.5 9C11.5 8.43721 11.314 7.91784 11.0001 7.5H12H14H17C18.3806 7.5 19.5 8.6194 19.5 10V19.0132C19.5 19.4539 18.9177 19.6867 18.6106 19.3172L16.6585 16.9676C16.6585 16.9676 16.6585 16.9676 16.6585 16.9676C16.0587 16.2455 14.9413 16.2455 14.3415 16.9676C14.3415 16.9676 14.3415 16.9676 14.3415 16.9676L12.3894 19.3172C12.0823 19.6867 11.5 19.4539 11.5 19.0132V14V9Z" stroke="#595959"/>
<g filter="url(#filter1_f_0_6550)">
<path d="M20 6L20.4455 8.55452L23 9L20.4455 9.44548L20 12L19.5545 9.44548L17 9L19.5545 8.55452L20 6Z" fill="white"/>
</g>
<g filter="url(#filter2_f_0_6550)">
<path d="M12 18L12.297 19.703L14 20L12.297 20.297L12 22L11.703 20.297L10 20L11.703 19.703L12 18Z" fill="white"/>
</g>
<g opacity="0.7" filter="url(#filter3_f_0_6550)">
<path d="M6 12L6.29698 13.703L8 14L6.29698 14.297L6 16L5.70302 14.297L4 14L5.70302 13.703L6 12Z" fill="white"/>
</g>
<defs>
<filter id="filter0_f_0_6550" x="0.25" y="0" width="25.5" height="25.0098" filterUnits="userSpaceOnUse" color-interpolation-filters="sRGB">
<feFlood flood-opacity="0" result="BackgroundImageFix"/>
<feBlend mode="normal" in="SourceGraphic" in2="BackgroundImageFix" result="shape"/>
<feGaussianBlur stdDeviation="1.5" result="effect1_foregroundBlur_0_6550"/>
</filter>
<filter id="filter1_f_0_6550" x="16" y="5" width="8" height="8" filterUnits="userSpaceOnUse" color-interpolation-filters="sRGB">
<feFlood flood-opacity="0" result="BackgroundImageFix"/>
<feBlend mode="normal" in="SourceGraphic" in2="BackgroundImageFix" result="shape"/>
<feGaussianBlur stdDeviation="0.5" result="effect1_foregroundBlur_0_6550"/>
</filter>
<filter id="filter2_f_0_6550" x="9" y="17" width="6" height="6" filterUnits="userSpaceOnUse" color-interpolation-filters="sRGB">
<feFlood flood-opacity="0" result="BackgroundImageFix"/>
<feBlend mode="normal" in="SourceGraphic" in2="BackgroundImageFix" result="shape"/>
<feGaussianBlur stdDeviation="0.5" result="effect1_foregroundBlur_0_6550"/>
</filter>
<filter id="filter3_f_0_6550" x="3" y="11" width="6" height="6" filterUnits="userSpaceOnUse" color-interpolation-filters="sRGB">
<feFlood flood-opacity="0" result="BackgroundImageFix"/>
<feBlend mode="normal" in="SourceGraphic" in2="BackgroundImageFix" result="shape"/>
<feGaussianBlur stdDeviation="0.5" result="effect1_foregroundBlur_0_6550"/>
</filter>
<linearGradient id="paint0_linear_0_6550" x1="-2.5" y1="2" x2="80.8873" y2="37.6263" gradientUnits="userSpaceOnUse">
<stop stop-color="white"/>
<stop offset="0.60701" stop-color="white" stop-opacity="0"/>
<stop offset="0.612568" stop-color="white" stop-opacity="0"/>
<stop offset="1" stop-color="white"/>
</linearGradient>
<linearGradient id="paint1_linear_0_6550" x1="62.5" y1="6.5" x2="65" y2="20" gradientUnits="userSpaceOnUse">
<stop stop-color="#4E4E4E"/>
<stop offset="0.286458" stop-color="white" stop-opacity="0"/>
<stop offset="0.380208" stop-color="white" stop-opacity="0.57"/>
<stop offset="1"/>
</linearGradient>
<linearGradient id="paint2_linear_0_6550" x1="10.5" y1="5.5" x2="6.5" y2="14" gradientUnits="userSpaceOnUse">
<stop stop-color="#1D1D1D" stop-opacity="0.48"/>
<stop offset="0.822917" stop-opacity="0"/>
</linearGradient>
<linearGradient id="paint3_linear_0_6550" x1="12.5" y1="9" x2="8" y2="9" gradientUnits="userSpaceOnUse">
<stop stop-opacity="0.4"/>
<stop offset="1" stop-opacity="0"/>
</linearGradient>
<linearGradient id="paint4_linear_0_6550" x1="14.5" y1="7" x2="14.5" y2="20" gradientUnits="userSpaceOnUse">
<stop stop-color="white"/>
<stop offset="0.23674" stop-color="white" stop-opacity="0"/>
<stop offset="0.501593" stop-color="white" stop-opacity="0"/>
<stop offset="1" stop-color="white"/>
</linearGradient>
</defs>
</svg>
