<svg width="76" height="9" viewBox="0 0 76 9" fill="none" xmlns="http://www.w3.org/2000/svg">
<path d="M64.9519 3.57025V9H66.8615V5.38017H73.8449V9H75.7545V3.57025H64.9519ZM66.6432 1.80992H74.0086C75.0452 1.63636 75.7818 0.793388 76 0H64.6518C64.8701 0.793388 65.6339 1.61157 66.6432 1.80992ZM59.1414 9C60.0962 8.6281 60.6145 7.98347 60.8327 7.23967H52.2398V0.0247934H50.3029V9H59.1414ZM35.9813 1.78512H42.8011C43.8378 1.5124 44.6834 0.793388 44.9016 0.0247934H34.0991V5.33058H42.9375V7.19008H36.0086C34.9174 7.46281 33.9899 8.13223 33.5262 9H44.8471V3.57025H36.0086L35.9813 1.78512ZM19.1773 1.80992H26.5427C27.5793 1.63636 28.3431 0.793388 28.5341 0H17.1586C17.3769 0.793388 18.1407 1.61157 19.1773 1.80992ZM19.1773 5.35537H26.5427C27.5793 5.18182 28.3431 4.33884 28.5341 3.54545H17.1586C17.3769 4.33884 18.1407 5.15702 19.1773 5.35537ZM19.1773 9H26.5427C27.5793 8.82645 28.3431 7.98347 28.5341 7.19008H17.1586C17.3769 7.98347 18.1407 8.82645 19.1773 9ZM0 0.0247934C0.218234 0.818182 0.982053 1.61157 1.99139 1.80992H5.10122L5.2649 1.8595V8.97521H7.20172V1.8595L7.3654 1.80992H10.4752C11.5118 1.56198 12.2484 0.818182 12.4666 0.0247934V0L0 0.0247934Z" fill="black"/>
</svg>
