<svg width="77" height="24" viewBox="0 0 77 24" fill="none" xmlns="http://www.w3.org/2000/svg">
<rect x="0.5" y="0.5" width="76" height="23" rx="11.5" fill="#FAFAFA" stroke="#0085FF"/>
<path d="M26.6224 15.848L29.2504 8.636H30.4024L27.2464 17H25.9864L22.8304 8.636H23.9944L26.6224 15.848ZM34.3958 11.24C33.3278 11.24 32.4398 11.948 32.3198 13.232H36.4718C36.4838 11.948 35.5238 11.24 34.3958 11.24ZM37.4678 14.972C37.1318 16.172 36.0758 17.108 34.4438 17.108C32.5718 17.108 31.1918 15.788 31.1918 13.7C31.1918 11.624 32.5238 10.316 34.4438 10.316C36.3518 10.316 37.5998 11.66 37.5998 13.46C37.5998 13.7 37.5878 13.892 37.5638 14.12H32.3078C32.3918 15.452 33.3278 16.184 34.4438 16.184C35.4278 16.184 36.0518 15.68 36.2918 14.972H37.4678ZM40.1332 13.424V17H39.0412V10.424H40.1332V11.492C40.5052 10.76 41.2132 10.304 42.2572 10.304V11.432H41.9692C40.9252 11.432 40.1332 11.9 40.1332 13.424ZM43.5178 17V10.424H44.6098V17H43.5178ZM44.0818 9.356C43.6618 9.356 43.3378 9.032 43.3378 8.612C43.3378 8.192 43.6618 7.868 44.0818 7.868C44.4778 7.868 44.8018 8.192 44.8018 8.612C44.8018 9.032 44.4778 9.356 44.0818 9.356ZM46.6749 17V11.324H45.8229V10.424H46.6749V9.956C46.6749 8.492 47.3949 7.832 49.0749 7.832V8.744C48.0909 8.744 47.7669 9.104 47.7669 9.956V10.424H49.1469V11.324H47.7669V17H46.6749ZM50.4201 17V10.424H51.5121V17H50.4201ZM50.9841 9.356C50.5641 9.356 50.2401 9.032 50.2401 8.612C50.2401 8.192 50.5641 7.868 50.9841 7.868C51.3801 7.868 51.7041 8.192 51.7041 8.612C51.7041 9.032 51.3801 9.356 50.9841 9.356ZM56.1692 11.24C55.1012 11.24 54.2132 11.948 54.0932 13.232H58.2452C58.2572 11.948 57.2972 11.24 56.1692 11.24ZM59.2412 14.972C58.9052 16.172 57.8492 17.108 56.2172 17.108C54.3452 17.108 52.9652 15.788 52.9652 13.7C52.9652 11.624 54.2972 10.316 56.2172 10.316C58.1252 10.316 59.3732 11.66 59.3732 13.46C59.3732 13.7 59.3612 13.892 59.3372 14.12H54.0812C54.1652 15.452 55.1012 16.184 56.2172 16.184C57.2012 16.184 57.8252 15.68 58.0652 14.972H59.2412ZM60.4066 13.688C60.4066 11.636 61.7626 10.316 63.5386 10.316C64.5706 10.316 65.5186 10.844 65.9746 11.6V8.12H67.0786V17H65.9746V15.764C65.5786 16.496 64.7266 17.108 63.5266 17.108C61.7626 17.108 60.4066 15.728 60.4066 13.688ZM65.9746 13.7C65.9746 12.176 64.9426 11.264 63.7426 11.264C62.5426 11.264 61.5226 12.14 61.5226 13.688C61.5226 15.236 62.5426 16.148 63.7426 16.148C64.9426 16.148 65.9746 15.248 65.9746 13.7Z" fill="#0085FF"/>
<path fill-rule="evenodd" clip-rule="evenodd" d="M13.0424 5.51427C12.3336 4.82858 11.2087 4.82858 10.4999 5.51427C10.0946 5.90638 9.53101 6.0895 8.97262 6.01052C7.99614 5.87241 7.08609 6.5336 6.9157 7.50496C6.81826 8.06043 6.46995 8.53985 5.97177 8.80416C5.10061 9.26638 4.753 10.3362 5.1861 11.2222C5.43377 11.7289 5.43377 12.3215 5.1861 12.8281C4.753 13.7141 5.10061 14.784 5.97177 15.2462C6.46995 15.5105 6.81826 15.9899 6.9157 16.5454C7.08609 17.5167 7.99614 18.1779 8.97262 18.0398C9.53101 17.9608 10.0946 18.144 10.4999 18.5361C11.2087 19.2218 12.3336 19.2218 13.0424 18.5361C13.4477 18.144 14.0113 17.9608 14.5697 18.0398C15.5462 18.1779 16.4562 17.5167 16.6266 16.5454C16.7241 15.9899 17.0724 15.5105 17.5706 15.2462C18.4417 14.784 18.7893 13.7141 18.3562 12.8281C18.1086 12.3215 18.1086 11.7289 18.3562 11.2222C18.7893 10.3362 18.4417 9.26638 17.5706 8.80416C17.0724 8.53985 16.7241 8.06043 16.6266 7.50496C16.4562 6.5336 15.5462 5.87241 14.5697 6.01052C14.0113 6.0895 13.4477 5.90638 13.0424 5.51427ZM14.969 10.5459C15.2209 10.294 15.2209 9.88554 14.969 9.63363C14.7171 9.38172 14.3086 9.38172 14.0567 9.63363L10.965 12.7253L9.32471 11.085C9.0728 10.8331 8.66437 10.8331 8.41246 11.085C8.16055 11.3369 8.16055 11.7454 8.41246 11.9973L10.5089 14.0937C10.7608 14.3456 11.1692 14.3456 11.4212 14.0937L14.969 10.5459Z" fill="#0085FF"/>
</svg>
